<svg width="44" height="45" viewBox="0 0 44 45" fill="none" xmlns="http://www.w3.org/2000/svg">
<path d="M2.32954 12.5231C3.72245 9.62192 5.6905 7.16986 8.17078 5.13097C11.5317 2.35557 15.387 0.684935 19.7095 0.172967C24.7869 -0.428819 29.5587 0.532243 33.9711 3.17292C35.0674 3.8286 36.0919 4.5741 37.0714 5.38247C37.3141 5.58007 37.2871 5.69683 37.0804 5.89443C35.0764 7.88841 33.0724 9.88239 31.0864 11.8943C30.8528 12.1279 30.7269 12.1099 30.4753 11.9213C24.6521 7.43932 16.1598 8.65188 11.8193 14.5799C11.0555 15.6218 10.4354 16.7446 10.004 17.9661C9.96808 18.0739 9.89619 18.1727 9.84227 18.2805C8.68301 17.4002 7.51477 16.52 6.36449 15.6308C5.01651 14.5979 3.66854 13.565 2.32954 12.5231Z" fill="#E94335"/>
<path d="M9.84227 26.7055C10.2287 27.5588 10.5522 28.448 11.0375 29.2474C13.0774 32.5886 15.9891 34.7353 19.8263 35.4988C23.2861 36.1904 26.6111 35.7233 29.7115 33.9898C29.8193 33.9359 29.9271 33.882 30.026 33.8281C30.0799 33.882 30.1248 33.9449 30.1788 33.9898C32.4973 35.7862 34.8248 37.5826 37.1433 39.3789C36.029 40.4837 34.7619 41.3729 33.4139 42.1454C29.5048 44.3729 25.2721 45.2711 20.8148 44.9297C15.2611 44.4986 10.4713 42.307 6.51726 38.355C4.78286 36.6215 3.35401 34.6634 2.32056 32.4269C3.28212 31.6904 4.24367 30.9629 5.20523 30.2264C6.75091 29.0498 8.29659 27.8821 9.84227 26.7055Z" fill="#34A853"/>
<path d="M37.1523 39.3789C34.8338 37.5826 32.5063 35.7862 30.1877 33.9898C30.1338 33.9449 30.0799 33.882 30.035 33.8281C30.8348 33.2084 31.6525 32.6066 32.3086 31.8162C33.4049 30.5048 34.1328 29.0228 34.5103 27.3612C34.5552 27.1546 34.5192 27.0827 34.3126 27.0917C34.2047 27.1007 34.1059 27.0917 33.998 27.0917C30.3315 27.0917 26.656 27.0827 22.9895 27.1007C22.5852 27.1007 22.4953 26.9929 22.5043 26.6067C22.5222 24.0019 22.5222 21.3972 22.5043 18.7924C22.5043 18.4601 22.5941 18.3703 22.9266 18.3703C29.6486 18.3793 36.3705 18.3793 43.1014 18.3703C43.3889 18.3703 43.5058 18.4421 43.5777 18.7475C44.1258 21.2175 44.0899 23.6966 43.7574 26.1935C43.4878 28.1875 43.0025 30.1186 42.2566 31.9868C41.1513 34.7443 39.5247 37.1514 37.3859 39.2173C37.3051 39.2801 37.2242 39.325 37.1523 39.3789Z" fill="#4285F3"/>
<path d="M9.84227 26.7055C8.29659 27.8821 6.75091 29.0498 5.20523 30.2264C4.24367 30.9539 3.28212 31.6904 2.32056 32.4269C1.57468 31.0437 1.08941 29.5797 0.693998 28.0707C-0.0608692 25.1516 -0.177694 22.1876 0.235686 19.2146C0.559201 16.8793 1.23319 14.6338 2.32056 12.5321C3.66854 13.565 5.00753 14.6069 6.3555 15.6398C7.51476 16.529 8.67403 17.4092 9.83329 18.2894C9.63558 19.2505 9.357 20.1936 9.26714 21.1816C9.10538 22.978 9.27612 24.7295 9.78835 26.454C9.8243 26.5258 9.83329 26.6157 9.84227 26.7055Z" fill="#FABB06"/>
</svg>
