<svg width="38" height="20" viewBox="0 0 38 20" fill="none" xmlns="http://www.w3.org/2000/svg">
<path d="M0 9.9978C0 4.47496 4.47715 -0.00219727 10 -0.00219727C15.5228 -0.00219727 20 4.47496 20 9.9978C20 15.5206 15.5228 19.9978 10 19.9978C4.47715 19.9978 0 15.5206 0 9.9978Z" fill="#00C2FF"/>
<path fill-rule="evenodd" clip-rule="evenodd" d="M35.5317 6.39053C36.0956 5.86689 36.9813 5.86689 37.5453 6.39053C38.1516 6.95353 38.1516 7.89921 37.5453 8.46221L32.0068 13.6051C31.4429 14.1287 30.5571 14.1287 29.9932 13.6051L24.4547 8.46221C23.8484 7.89921 23.8484 6.95353 24.4547 6.39054C25.0187 5.86689 25.9044 5.86689 26.4683 6.39054L31 10.5985L35.5317 6.39053Z" fill="#00C2FF"/>
</svg>
