<svg width="38" height="20" viewBox="0 0 38 20" fill="none" xmlns="http://www.w3.org/2000/svg">
<path d="M0 9.9978C0 4.47496 4.47715 -0.00219727 10 -0.00219727C15.5228 -0.00219727 20 4.47496 20 9.9978C20 15.5206 15.5228 19.9978 10 19.9978C4.47715 19.9978 0 15.5206 0 9.9978Z" fill="#00C2FF"/>
<path fill-rule="evenodd" clip-rule="evenodd" d="M35.5317 13.6051C36.0956 14.1287 36.9813 14.1287 37.5453 13.6051C38.1516 13.0421 38.1516 12.0964 37.5453 11.5334L32.0068 6.39054C31.4429 5.86689 30.5571 5.86689 29.9932 6.39054L24.4547 11.5334C23.8484 12.0964 23.8484 13.0421 24.4547 13.6051C25.0187 14.1287 25.9044 14.1287 26.4683 13.6051L31 9.39711L35.5317 13.6051Z" fill="#00C2FF"/>
</svg>
