<svg width="38" height="45" viewBox="0 0 38 45" fill="none" xmlns="http://www.w3.org/2000/svg">
<path fill-rule="evenodd" clip-rule="evenodd" d="M25.8643 7.18403C27.494 5.28278 28.5925 2.63473 28.2919 0C25.9435 0.0900008 23.1022 1.51009 21.4183 3.40909C19.9061 5.09433 18.5861 7.78709 18.941 10.3701C21.5607 10.5658 24.2346 9.0875 25.8643 7.18403ZM31.7389 23.9065C31.8045 30.7172 37.9322 32.9828 38 33.012C37.9503 33.1718 37.0213 36.2402 34.7723 39.4127C32.8261 42.1532 30.8077 44.8826 27.6274 44.9411C24.5036 44.9973 23.4978 43.1547 19.9242 43.1547C16.3529 43.1547 15.2363 44.8824 12.2798 44.9971C9.21029 45.1074 6.87086 42.0321 4.91116 39.3007C0.901348 33.7139 -2.16138 23.5129 1.9524 16.628C3.99573 13.2102 7.64614 11.0426 11.6107 10.9886C14.6238 10.9324 17.4695 12.9442 19.3117 12.9442C21.1538 12.9442 24.6121 10.5255 28.2467 10.881C29.7679 10.9417 34.0399 11.4725 36.7817 15.3447C36.5602 15.4775 31.6847 18.214 31.7389 23.9065Z" fill="black"/>
</svg>
