<svg width="38" height="38" viewBox="0 0 38 38" fill="none" xmlns="http://www.w3.org/2000/svg">
<circle cx="19" cy="19" r="19" fill="white" fill-opacity="0.1"/>
<circle cx="19" cy="19" r="18.5" stroke="white" stroke-opacity="0.2"/>
<path fill-rule="evenodd" clip-rule="evenodd" d="M19.0593 8.16629C18.9583 8.25302 18.8755 8.40304 18.8755 8.4996C18.8755 8.63095 18.824 8.67524 18.6713 8.67524C18.5013 8.67524 18.4671 8.71533 18.4671 8.91434C18.4671 9.04586 18.5343 9.21604 18.6165 9.29252C18.7789 9.44379 19.2023 9.48354 19.2023 9.34756C19.2023 9.30134 19.2391 9.26352 19.284 9.26352C19.331 9.26352 19.3657 9.52413 19.3657 9.87735C19.3657 10.4094 19.3343 10.5421 19.1303 10.8731C18.9055 11.2377 18.874 11.2571 18.431 11.3042C18.1759 11.3312 17.7383 11.4636 17.4587 11.5982L16.9503 11.843L16.6859 12.7173C16.5406 13.1981 16.4224 13.6603 16.4233 13.7443C16.4242 13.8282 16.52 14.0252 16.6363 14.182L16.8476 14.4669L15.5549 19.0381L14.2623 23.6093L13.816 23.7689L13.3698 23.9285L13.1882 24.6008C13.0883 24.9706 13.0037 25.4622 13.0003 25.6934C12.9902 26.3712 13.2355 26.5316 15.4038 27.2647C16.3923 27.5989 17.2132 27.902 17.2282 27.9384C17.2432 27.9747 17.5924 28.0024 18.0042 27.9998C18.7181 27.9954 18.7609 27.9846 18.924 27.7687C19.0181 27.6442 19.1782 27.2586 19.28 26.9119C19.5125 26.1193 19.4722 25.5648 19.1572 25.2266L18.9443 24.9979L20.2782 20.4127L21.6121 15.8275L21.9364 15.8021L22.2607 15.7766L22.5011 14.9782C22.6332 14.5391 22.7446 14.1752 22.7485 14.1694C22.7525 14.1636 22.9609 14.1333 23.2117 14.102L23.6679 14.0452L23.878 14.3719L24.0881 14.6985L23.0319 18.221C22.451 20.1584 21.9199 21.9381 21.8518 22.176L21.7279 22.6085L21.3345 22.4376C20.9117 22.2538 20.3459 22.2828 20.3459 22.4885C20.3459 22.5473 20.6167 22.7179 20.9477 22.8676C21.4292 23.0853 21.6367 23.1345 21.9857 23.1139L22.4219 23.0881L23.6424 18.8441C24.3136 16.5099 24.8942 14.5875 24.9325 14.5721C25.0265 14.5342 25.0209 14.1555 24.9245 14.0293C24.8818 13.9735 24.7203 13.7763 24.5655 13.5912C24.2966 13.2696 24.2844 13.2264 24.2916 12.6247C24.2965 12.2182 24.2575 11.9203 24.1819 11.7847C24.114 11.6631 24.0277 11.1185 23.977 10.4914C23.8963 9.49312 23.8732 9.39395 23.6832 9.2257C23.3745 8.95274 20.7627 8.06738 20.3551 8.09772C20.1741 8.11116 20 8.09528 19.9682 8.0625C19.8493 7.94014 19.242 8.00948 19.0593 8.16629Z" fill="white"/>
</svg>
