<svg width="202" height="202" viewBox="0 0 202 202" fill="none" xmlns="http://www.w3.org/2000/svg">
<circle cx="101" cy="101" r="101" fill="#0085FF"/>
<mask id="mask0_1487_2" style="mask-type:alpha" maskUnits="userSpaceOnUse" x="0" y="0" width="202" height="202">
<circle cx="101" cy="101" r="101" fill="white"/>
</mask>
<g mask="url(#mask0_1487_2)">
<path d="M145.098 65.2023C145.098 89.9233 125.086 109.964 100.399 109.964C75.7123 109.964 55.6997 89.9233 55.6997 65.2023C55.6997 40.4813 75.7123 20.4409 100.399 20.4409C125.086 20.4409 145.098 40.4813 145.098 65.2023Z" fill="white"/>
<path d="M179.155 178.171C179.155 203.285 143.895 223.643 100.399 223.643C56.9033 223.643 21.6431 203.285 21.6431 178.171C21.6431 153.058 56.9033 132.7 100.399 132.7C143.895 132.7 179.155 153.058 179.155 178.171Z" fill="white"/>
</g>
</svg>
