<svg width="44" height="43" viewBox="0 0 44 43" fill="none" xmlns="http://www.w3.org/2000/svg">
<path fill-rule="evenodd" clip-rule="evenodd" d="M3.08 3.01C2.5177e-07 6.04866 0 10.9077 0 20.64V22.36C0 32.078 2.5177e-07 36.937 3.08 39.99C6.18933 43 11.1613 43 21.12 43H22.88C32.824 43 37.796 43 40.92 39.99C44 36.9514 44 32.0924 44 22.36V20.64C44 10.922 44 6.063 40.92 3.01C37.8107 2.46048e-07 32.8387 0 22.88 0H21.12C11.176 0 6.204 2.46048e-07 3.08 3.01ZM7.42133 13.0863C7.656 24.2664 13.376 30.9744 23.408 30.9744H23.9947V24.5816C27.676 24.94 30.4627 27.5774 31.5773 30.9744H36.784C36.2501 29.0441 35.3032 27.2463 34.0063 25.6996C32.7094 24.1531 31.0917 22.8928 29.26 22.0016C30.9014 21.0249 32.3191 19.7275 33.4244 18.1912C34.5297 16.6548 35.299 14.9121 35.684 13.072H30.9613C29.9347 16.6267 26.884 19.8516 23.9947 20.1526V13.0863H19.2573V25.4704C16.324 24.7536 12.628 21.285 12.4667 13.0863H7.42133Z" fill="white"/>
</svg>
